<svg width="15" height="11" viewBox="0 0 15 11" fill="none" xmlns="http://www.w3.org/2000/svg">
<path d="M4.86486 6.1875H3.64865C3.42466 6.1875 3.24324 6.34133 3.24324 6.53125V10.6562C3.24324 10.8462 3.42466 11 3.64865 11H4.86486C5.08885 11 5.27027 10.8462 5.27027 10.6562V6.53125C5.27027 6.34133 5.08885 6.1875 4.86486 6.1875ZM1.62162 8.25H0.405405C0.181419 8.25 0 8.40383 0 8.59375V10.6562C0 10.8462 0.181419 11 0.405405 11H1.62162C1.84561 11 2.02703 10.8462 2.02703 10.6562V8.59375C2.02703 8.40383 1.84561 8.25 1.62162 8.25ZM8.10811 4.125H6.89189C6.66791 4.125 6.48649 4.27883 6.48649 4.46875V10.6562C6.48649 10.8462 6.66791 11 6.89189 11H8.10811C8.3321 11 8.51351 10.8462 8.51351 10.6562V4.46875C8.51351 4.27883 8.3321 4.125 8.10811 4.125ZM11.3514 2.0625H10.1351C9.91115 2.0625 9.72973 2.21633 9.72973 2.40625V10.6562C9.72973 10.8462 9.91115 11 10.1351 11H11.3514C11.5753 11 11.7568 10.8462 11.7568 10.6562V2.40625C11.7568 2.21633 11.5753 2.0625 11.3514 2.0625ZM14.5946 0H13.3784C13.1544 0 12.973 0.153828 12.973 0.34375V10.6562C12.973 10.8462 13.1544 11 13.3784 11H14.5946C14.8186 11 15 10.8462 15 10.6562V0.34375C15 0.153828 14.8186 0 14.5946 0Z" fill="black"/>
</svg>
