<svg width="14" height="11" viewBox="0 0 14 11" fill="none" xmlns="http://www.w3.org/2000/svg">
<path d="M13.8886 3.01714C10.013 -1.00645 3.98539 -1.00498 0.111325 3.01714C-0.0343624 3.16839 -0.0372061 3.42449 0.103669 3.58138L0.852669 4.41547C0.986982 4.56525 1.20311 4.56844 1.34267 4.4248C4.53467 1.14248 9.46486 1.14174 12.6575 4.4248C12.7971 4.56844 13.0132 4.565 13.1475 4.41547L13.8965 3.58138C14.0372 3.42449 14.0343 3.16839 13.8886 3.01714ZM6.99999 7.85714C6.2267 7.85714 5.59998 8.5606 5.59998 9.42857C5.59998 10.2965 6.2267 11 6.99999 11C7.77327 11 8.39999 10.2965 8.39999 9.42857C8.39999 8.5606 7.77327 7.85714 6.99999 7.85714ZM11.4334 5.80471C8.91208 3.30196 5.08505 3.30467 2.56658 5.80471C2.41564 5.95449 2.41083 6.21451 2.55411 6.37312L3.30748 7.2077C3.43873 7.35306 3.65005 7.36288 3.78983 7.22734C5.62623 5.44549 8.37789 5.44942 10.2099 7.22734C10.3497 7.36288 10.561 7.3533 10.6923 7.2077L11.4456 6.37312C11.5891 6.21451 11.5841 5.95424 11.4334 5.80471Z" fill="black"/>
</svg>
